<svg width="30" height="30" viewBox="0 0 30 30" fill="none" xmlns="http://www.w3.org/2000/svg">
<path fill-rule="evenodd" clip-rule="evenodd" d="M4 9C4 6.79086 5.79086 5 8 5L8 10H4V9ZM4 12V21C4 23.2091 5.79086 25 8 25H22C24.2091 25 26 23.2091 26 21V12H4ZM26 10V9C26 6.79086 24.2091 5 22 5V10H26ZM20 5H18V10H20V5ZM16 5H14V10H16V5ZM12 5H10L10 10H12L12 5ZM17.5 16.634C18.1667 17.0189 18.1667 17.9811 17.5 18.366L13.75 20.5311C13.0833 20.916 12.25 20.4349 12.25 19.6651V15.3349C12.25 14.5651 13.0833 14.084 13.75 14.4689L17.5 16.634Z" fill="#B7B7B7"/>
</svg>
