<svg width="30" height="30" viewBox="0 0 30 30" fill="none" xmlns="http://www.w3.org/2000/svg">
<path fill-rule="evenodd" clip-rule="evenodd" d="M6.81144 24.8457C8.23063 21.3985 11.3614 19 15 19C18.6386 19 21.7693 21.3985 23.1885 24.8456C25.265 22.7576 26.5483 19.8799 26.5483 16.7025C26.5483 10.3245 21.3779 5.15417 15 5.15417C8.62201 5.15417 3.45166 10.3245 3.45166 16.7025C3.45166 19.8799 4.73492 22.7576 6.81144 24.8457ZM15 18.1542C17.2091 18.1542 19 16.3633 19 14.1542C19 11.945 17.2091 10.1542 15 10.1542C12.7909 10.1542 11 11.945 11 14.1542C11 16.3633 12.7909 18.1542 15 18.1542Z" fill="#B7B7B7"/>
</svg>
