<svg width="30" height="30" viewBox="0 0 30 30" fill="none" xmlns="http://www.w3.org/2000/svg">
<path fill-rule="evenodd" clip-rule="evenodd" d="M12.8498 7.26062C12.0422 7.53823 11.5 8.29801 11.5 9.15199V12.5996V14.5996V18.9364C11.0454 18.7205 10.5368 18.5996 10 18.5996C8.067 18.5996 6.5 20.1666 6.5 22.0996C6.5 24.0326 8.067 25.5996 10 25.5996C11.933 25.5996 13.5 24.0326 13.5 22.0996C13.5 21.9299 13.4879 21.7629 13.4646 21.5996H13.5V13.9121L21.5 11.1621V15.9364C21.0454 15.7205 20.5368 15.5996 20 15.5996C18.067 15.5996 16.5 17.1666 16.5 19.0996C16.5 21.0326 18.067 22.5996 20 22.5996C21.7632 22.5996 23.2219 21.2958 23.4646 19.5996H23.5V19.0996V10.4746V9.59963V6.40199C23.5 5.029 22.1483 4.06429 20.8498 4.51062L12.8498 7.26062Z" fill="#B7B7B7"/>
</svg>
